<?xml version="1.0" encoding="UTF-8" standalone="no"?>
<!DOCTYPE svg PUBLIC "-//W3C//DTD SVG 1.1//EN"
 "http://www.w3.org/Graphics/SVG/1.1/DTD/svg11.dtd">
<!-- Generated by graphviz version 2.40.1 (20161225.0304)
 -->
<!-- Title: filtering Pages: 1 -->
<svg width="180pt" height="378pt"
 viewBox="0.00 0.00 180.00 378.00" xmlns="http://www.w3.org/2000/svg" xmlns:xlink="http://www.w3.org/1999/xlink">
<g id="graph0" class="graph" transform="scale(1 1) rotate(0) translate(4 374)">
<title>filtering</title>
<polygon fill="#ffffff" stroke="transparent" points="-4,4 -4,-374 175.9996,-374 175.9996,4 -4,4"/>
<!-- Database -->
<g id="node1" class="node">
<title>Database</title>
<polygon fill="none" stroke="#000000" points="122.4999,-36 56.4999,-36 56.4999,0 122.4999,0 122.4999,-36"/>
<text text-anchor="middle" x="89.4999" y="-14.3" font-family="Times,serif" font-size="14.00" fill="#000000">Database</text>
</g>
<!-- ORM -->
<g id="node2" class="node">
<title>ORM</title>
<polygon fill="none" stroke="#000000" points="116.4999,-123 62.4999,-123 62.4999,-87 116.4999,-87 116.4999,-123"/>
<text text-anchor="middle" x="89.4999" y="-101.3" font-family="Times,serif" font-size="14.00" fill="#000000">ORM</text>
</g>
<!-- Database&#45;&gt;ORM -->
<g id="edge1" class="edge">
<title>Database&#45;&gt;ORM</title>
<path fill="none" stroke="#000000" d="M89.4999,-46.1844C89.4999,-56.029 89.4999,-67.0734 89.4999,-76.9103"/>
<polygon fill="#000000" stroke="#000000" points="93,-46.0264 89.4999,-36.0265 86,-46.0265 93,-46.0264"/>
<polygon fill="#000000" stroke="#000000" points="86,-76.9966 89.4999,-86.9966 93,-76.9967 86,-76.9966"/>
<text text-anchor="middle" x="106.4999" y="-57.8" font-family="Times,serif" font-size="14.00" fill="#000000"> &#160;SQL</text>
</g>
<!-- Application -->
<g id="node3" class="node">
<title>Application</title>
<polygon fill="none" stroke="#000000" points="129.4999,-210 49.4999,-210 49.4999,-174 129.4999,-174 129.4999,-210"/>
<text text-anchor="middle" x="89.4999" y="-188.3" font-family="Times,serif" font-size="14.00" fill="#000000">Application</text>
</g>
<!-- ORM&#45;&gt;Application -->
<g id="edge2" class="edge">
<title>ORM&#45;&gt;Application</title>
<path fill="none" stroke="#000000" d="M89.4999,-133.1844C89.4999,-143.029 89.4999,-154.0734 89.4999,-163.9103"/>
<polygon fill="#000000" stroke="#000000" points="93,-133.0264 89.4999,-123.0265 86,-133.0265 93,-133.0264"/>
<polygon fill="#000000" stroke="#000000" points="86,-163.9966 89.4999,-173.9966 93,-163.9967 86,-163.9966"/>
<text text-anchor="middle" x="125.4999" y="-144.8" font-family="Times,serif" font-size="14.00" fill="#000000"> &#160;Data model</text>
</g>
<!-- oso library -->
<g id="node4" class="node">
<title>oso library</title>
<polygon fill="none" stroke="#000000" points="126.9999,-283 51.9999,-283 51.9999,-247 126.9999,-247 126.9999,-283"/>
<text text-anchor="middle" x="89.4999" y="-261.3" font-family="Times,serif" font-size="14.00" fill="#000000">oso library</text>
</g>
<!-- Application&#45;&gt;oso library -->
<g id="edge3" class="edge">
<title>Application&#45;&gt;oso library</title>
<path fill="none" stroke="#000000" d="M77.6684,-210.0449C76.0715,-218.1172 75.6209,-227.8236 76.3164,-236.8183"/>
<polygon fill="#000000" stroke="#000000" points="72.8707,-237.4588 77.6594,-246.9096 79.8095,-236.5353 72.8707,-237.4588"/>
<text text-anchor="middle" x="38" y="-217.4806" font-family="Times,serif" font-size="14.00" fill="#000000">Allow query &#160;</text>
</g>
<!-- oso library&#45;&gt;Application -->
<g id="edge4" class="edge">
<title>oso library&#45;&gt;Application</title>
<path fill="none" stroke="#000000" d="M101.3403,-246.9096C102.9328,-238.8313 103.3792,-229.1231 102.6794,-220.1312"/>
<polygon fill="#000000" stroke="#000000" points="106.1253,-219.4931 101.3313,-210.0449 99.187,-220.4205 106.1253,-219.4931"/>
<text text-anchor="middle" x="137.4996" y="-217.0676" font-family="Times,serif" font-size="14.00" fill="#000000"> &#160;ORM ﬁlter</text>
</g>
<!-- Policy -->
<g id="node5" class="node">
<title>Policy</title>
<polygon fill="none" stroke="#000000" points="116.4999,-370 62.4999,-370 62.4999,-334 116.4999,-334 116.4999,-370"/>
<text text-anchor="middle" x="89.4999" y="-348.3" font-family="Times,serif" font-size="14.00" fill="#000000">Policy</text>
</g>
<!-- oso library&#45;&gt;Policy -->
<g id="edge5" class="edge">
<title>oso library&#45;&gt;Policy</title>
<path fill="none" stroke="#000000" d="M89.4999,-293.1844C89.4999,-306.5898 89.4999,-322.2199 89.4999,-333.9966"/>
<polygon fill="#000000" stroke="#000000" points="93,-293.0264 89.4999,-283.0265 86,-293.0265 93,-293.0264"/>
<text text-anchor="middle" x="106.4999" y="-304.8" font-family="Times,serif" font-size="14.00" fill="#000000"> &#160;Rule</text>
</g>
</g>
</svg>
