<?xml version="1.0" encoding="UTF-8" standalone="no"?>
<!DOCTYPE svg PUBLIC "-//W3C//DTD SVG 1.1//EN"
 "http://www.w3.org/Graphics/SVG/1.1/DTD/svg11.dtd">
<!-- Generated by graphviz version 2.43.0 (0)
 -->
<!-- Title: %3 Pages: 1 -->
<svg width="335pt" height="228pt"
 viewBox="0.00 0.00 335.00 228.00" xmlns="http://www.w3.org/2000/svg" xmlns:xlink="http://www.w3.org/1999/xlink">
<g id="graph0" class="graph" transform="scale(1 1) rotate(0) translate(36 192)">
<title>%3</title>
<polygon fill="white" stroke="transparent" points="-36,36 -36,-192 299,-192 299,36 -36,36"/>
<!-- User -->
<g id="node1" class="node">
<title>User</title>
<polygon fill="none" stroke="black" points="222,-136 222,-156 258,-156 258,-136 222,-136"/>
<text text-anchor="start" x="226.78" y="-142.8" font-family="Times,serif" font-style="italic" font-size="14.00">User</text>
<polygon fill="none" stroke="black" points="222,-116 222,-136 258,-136 258,-116 222,-116"/>
<text text-anchor="start" x="234.56" y="-121.8" font-family="Times,serif" font-size="14.00">id</text>
<polygon fill="none" stroke="black" points="222,-96 222,-116 258,-116 258,-96 222,-96"/>
<text text-anchor="start" x="224.84" y="-101.8" font-family="Times,serif" font-size="14.00">name</text>
</g>
<!-- WidgetRole -->
<g id="node2" class="node">
<title>WidgetRole</title>
<polygon fill="none" stroke="black" points="0.5,-118 0.5,-138 73.5,-138 73.5,-118 0.5,-118"/>
<text text-anchor="start" x="3.45" y="-124.8" font-family="Times,serif" font-style="italic" font-size="14.00">WidgetRole</text>
<polygon fill="none" stroke="black" points="0.5,-98 0.5,-118 73.5,-118 73.5,-98 0.5,-98"/>
<text text-anchor="start" x="21.84" y="-103.8" font-family="Times,serif" font-size="14.00">name</text>
<polygon fill="none" stroke="black" points="0.5,-78 0.5,-98 73.5,-98 73.5,-78 0.5,-78"/>
<text text-anchor="start" x="16.39" y="-83.8" font-family="Times,serif" font-size="14.00">user_id</text>
<polygon fill="none" stroke="black" points="0.5,-58 0.5,-78 73.5,-78 73.5,-58 0.5,-58"/>
<text text-anchor="start" x="9" y="-63.8" font-family="Times,serif" font-size="14.00">widget_id</text>
</g>
<!-- WidgetRole&#45;&gt;User -->
<g id="edge1" class="edge">
<title>WidgetRole:8&#45;&gt;User:1</title>
<path fill="none" stroke="black" d="M73,-88C137.33,-88 151.65,-122.1 210.7,-125.69"/>
<polygon fill="black" stroke="black" points="210.9,-129.2 221,-126 211.11,-122.2 210.9,-129.2"/>
</g>
<!-- Widget -->
<g id="node3" class="node">
<title>Widget</title>
<polygon fill="none" stroke="black" points="217,-40 217,-60 263,-60 263,-40 217,-40"/>
<text text-anchor="start" x="219.67" y="-46.8" font-family="Times,serif" font-style="italic" font-size="14.00">Widget</text>
<polygon fill="none" stroke="black" points="217,-20 217,-40 263,-40 263,-20 217,-20"/>
<text text-anchor="start" x="234.56" y="-25.8" font-family="Times,serif" font-size="14.00">id</text>
<polygon fill="none" stroke="black" points="217,0 217,-20 263,-20 263,0 217,0"/>
<text text-anchor="start" x="224.84" y="-5.8" font-family="Times,serif" font-size="14.00">name</text>
</g>
<!-- WidgetRole&#45;&gt;Widget -->
<g id="edge2" class="edge">
<title>WidgetRole:9&#45;&gt;Widget:a</title>
<path fill="none" stroke="black" d="M73,-68C135.7,-68 149.43,-33.9 206.97,-30.31"/>
<polygon fill="black" stroke="black" points="207.11,-33.8 217,-30 206.9,-26.81 207.11,-33.8"/>
</g>
</g>
</svg>
