<?xml version="1.0" encoding="UTF-8" standalone="no"?>
<!DOCTYPE svg PUBLIC "-//W3C//DTD SVG 1.1//EN"
 "http://www.w3.org/Graphics/SVG/1.1/DTD/svg11.dtd">
<!-- Generated by graphviz version 2.40.1 (20161225.0304)
 -->
<!-- Title: arch Pages: 1 -->
<svg width="469pt" height="329pt"
 viewBox="0.00 0.00 469.33 329.00" xmlns="http://www.w3.org/2000/svg" xmlns:xlink="http://www.w3.org/1999/xlink">
<g id="graph0" class="graph" transform="scale(1 1) rotate(0) translate(4 325)">
<title>arch</title>
<polygon fill="#ffffff" stroke="transparent" points="-4,4 -4,-325 465.3333,-325 465.3333,4 -4,4"/>
<!-- app -->
<g id="node1" class="node">
<title>app</title>
<polygon fill="none" stroke="#000000" points="274.3333,-321 194.3333,-321 194.3333,-285 274.3333,-285 274.3333,-321"/>
<text text-anchor="middle" x="234.3333" y="-299.3" font-family="Times,serif" font-size="14.00" fill="#000000">Application</text>
</g>
<!-- oso -->
<g id="node2" class="node">
<title>oso</title>
<polygon fill="none" stroke="#000000" points="275.8333,-226 192.8333,-226 192.8333,-190 275.8333,-190 275.8333,-226"/>
<text text-anchor="middle" x="234.3333" y="-204.3" font-family="Times,serif" font-size="14.00" fill="#000000">Oso Library</text>
</g>
<!-- app&#45;&gt;oso -->
<g id="edge1" class="edge">
<title>app&#45;&gt;oso</title>
<path fill="none" stroke="#000000" d="M221,-284.683C221,-284.683 221,-236.2607 221,-236.2607"/>
<polygon fill="#000000" stroke="#000000" points="224.5001,-236.2607 221,-226.2607 217.5001,-236.2608 224.5001,-236.2607"/>
<text text-anchor="start" x="0" y="-265.2719" font-family="Times,serif" font-size="14.00" fill="#000000">Call: </text>
<text text-anchor="start" x="31" y="-265.2719" font-family="monospace" font-size="14.00" fill="#000000">oso.is_allowed(a,b,c)</text>
<text text-anchor="start" x="205" y="-265.2719" font-family="Times,serif" font-size="14.00" fill="#000000"> &#160;&#160;&#160;</text>
</g>
<!-- oso&#45;&gt;app -->
<g id="edge2" class="edge">
<title>oso&#45;&gt;app</title>
<path fill="none" stroke="#000000" d="M247.6667,-226.317C247.6667,-226.317 247.6667,-274.7393 247.6667,-274.7393"/>
<polygon fill="#000000" stroke="#000000" points="244.1668,-274.7392 247.6667,-284.7393 251.1668,-274.7393 244.1668,-274.7392"/>
<text text-anchor="start" x="264.3333" y="-252.8" font-family="Times,serif" font-size="14.00" fill="#000000">Return: </text>
<text text-anchor="start" x="309.3333" y="-252.8" font-family="monospace" font-size="14.00" fill="#000000">true</text>
<text text-anchor="start" x="343.3333" y="-252.8" font-family="Times,serif" font-size="14.00" fill="#000000">/</text>
<text text-anchor="start" x="347.3333" y="-252.8" font-family="monospace" font-size="14.00" fill="#000000">false</text>
</g>
<!-- kb -->
<g id="node3" class="node">
<title>kb</title>
<polygon fill="none" stroke="#000000" points="288.8333,-131 179.8333,-131 179.8333,-95 288.8333,-95 288.8333,-131"/>
<text text-anchor="middle" x="234.3333" y="-109.3" font-family="Times,serif" font-size="14.00" fill="#000000">Knowledge Base</text>
</g>
<!-- oso&#45;&gt;kb -->
<g id="edge3" class="edge">
<title>oso&#45;&gt;kb</title>
<path fill="none" stroke="#000000" d="M220.5,-189.683C220.5,-189.683 220.5,-141.2607 220.5,-141.2607"/>
<polygon fill="#000000" stroke="#000000" points="224.0001,-141.2607 220.5,-131.2607 217.0001,-141.2608 224.0001,-141.2607"/>
<text text-anchor="start" x="62.5" y="-170.2719" font-family="Times,serif" font-size="14.00" fill="#000000">Query: </text>
<text text-anchor="start" x="104.5" y="-170.2719" font-family="monospace" font-size="14.00" fill="#000000">allow(a,b,c)</text>
<text text-anchor="start" x="204.5" y="-170.2719" font-family="Times,serif" font-size="14.00" fill="#000000"> &#160;&#160;&#160;</text>
</g>
<!-- kb&#45;&gt;oso -->
<g id="edge4" class="edge">
<title>kb&#45;&gt;oso</title>
<path fill="none" stroke="#000000" d="M248.1667,-131.317C248.1667,-131.317 248.1667,-179.7393 248.1667,-179.7393"/>
<polygon fill="#000000" stroke="#000000" points="244.6668,-179.7392 248.1667,-189.7393 251.6668,-179.7393 244.6668,-179.7392"/>
<text text-anchor="start" x="264.3333" y="-157.8" font-family="Times,serif" font-size="14.00" fill="#000000">Results: </text>
<text text-anchor="start" x="312.3333" y="-157.8" font-family="monospace" font-size="14.00" fill="#000000">{a:x,b:y,c:z}, ...</text>
</g>
<!-- policy -->
<g id="node4" class="node">
<title>policy</title>
<polygon fill="none" stroke="#000000" points="299.3333,-36 169.3333,-36 169.3333,0 299.3333,0 299.3333,-36"/>
<text text-anchor="middle" x="234.3333" y="-14.3" font-family="Times,serif" font-size="14.00" fill="#000000">Authorization Policy</text>
</g>
<!-- kb&#45;&gt;policy -->
<g id="edge5" class="edge">
<title>kb&#45;&gt;policy</title>
<path fill="none" stroke="#000000" d="M234.3333,-84.683C234.3333,-84.683 234.3333,-36.2607 234.3333,-36.2607"/>
<polygon fill="#000000" stroke="#000000" points="230.8334,-84.683 234.3333,-94.683 237.8334,-84.6831 230.8334,-84.683"/>
<text text-anchor="start" x="234.3333" y="-62.8" font-family="Times,serif" font-size="14.00" fill="#000000"> &#160;&#160;&#160;&#160;Rules: </text>
<text text-anchor="start" x="292.3333" y="-62.8" font-family="monospace" font-size="14.00" fill="#000000">allow(x,y,z); ...</text>
</g>
</g>
</svg>
