<?xml version="1.0" encoding="UTF-8" standalone="no"?>
<!DOCTYPE svg PUBLIC "-//W3C//DTD SVG 1.1//EN"
 "http://www.w3.org/Graphics/SVG/1.1/DTD/svg11.dtd">
<!-- Generated by graphviz version 2.40.1 (20161225.0304)
 -->
<!-- Title: olympians Pages: 1 -->
<svg width="175pt" height="267pt"
 viewBox="0.00 0.00 174.50 267.20" xmlns="http://www.w3.org/2000/svg" xmlns:xlink="http://www.w3.org/1999/xlink">
<g id="graph0" class="graph" transform="scale(1 1) rotate(0) translate(4 263.2)">
<title>olympians</title>
<polygon fill="#ffffff" stroke="transparent" points="-4,4 -4,-263.2 170.5,-263.2 170.5,4 -4,4"/>
<!-- Kids -->
<g id="node1" class="node">
<title>Kids</title>
<ellipse fill="#000000" stroke="#000000" cx="76.5" cy="-241.2" rx="1.8" ry="1.8"/>
</g>
<!-- Leto -->
<g id="node3" class="node">
<title>Leto</title>
<polygon fill="none" stroke="#000000" points="150.5,-259.2 96.5,-259.2 96.5,-223.2 150.5,-223.2 150.5,-259.2"/>
<text text-anchor="middle" x="123.5" y="-237.5" font-family="Times,serif" font-size="14.00" fill="#000000">Leto</text>
</g>
<!-- Kids&#45;&#45;Leto -->
<g id="edge2" class="edge">
<title>Kids&#45;&#45;Leto</title>
<path fill="none" stroke="#000000" d="M78.5195,-241.2C81.8228,-241.2 88.7648,-241.2 96.2279,-241.2"/>
</g>
<!-- Zeus -->
<g id="node2" class="node">
<title>Zeus</title>
<polygon fill="none" stroke="#000000" points="56.5,-259.2 2.5,-259.2 2.5,-223.2 56.5,-223.2 56.5,-259.2"/>
<text text-anchor="middle" x="29.5" y="-237.5" font-family="Times,serif" font-size="14.00" fill="#000000">Zeus</text>
</g>
<!-- Zeus&#45;&#45;Kids -->
<g id="edge1" class="edge">
<title>Zeus&#45;&#45;Kids</title>
<path fill="none" stroke="#000000" d="M56.5678,-241.2C64.0771,-241.2 71.0888,-241.2 74.4389,-241.2"/>
</g>
<!-- Parents -->
<g id="node4" class="node">
<title>Parents</title>
<ellipse fill="#000000" stroke="#000000" cx="76.5" cy="-185.4" rx="1.8" ry="1.8"/>
</g>
<!-- Parents&#45;&#45;Kids -->
<g id="edge5" class="edge">
<title>Parents&#45;&#45;Kids</title>
<path fill="none" stroke="#000000" d="M76.5,-187.2566C76.5,-195.7285 76.5,-230.675 76.5,-239.2792"/>
</g>
<!-- ApolloParents -->
<g id="node6" class="node">
<title>ApolloParents</title>
<ellipse fill="#000000" stroke="#000000" cx="102.5" cy="-185.4" rx="1.8" ry="1.8"/>
</g>
<!-- Parents&#45;&#45;ApolloParents -->
<g id="edge4" class="edge">
<title>Parents&#45;&#45;ApolloParents</title>
<path fill="none" stroke="#000000" d="M78.2059,-186.2C82.9057,-186.2 96.0062,-186.2 100.7537,-186.2"/>
</g>
<!-- ArtemisParents -->
<g id="node5" class="node">
<title>ArtemisParents</title>
<ellipse fill="#000000" stroke="#000000" cx="46.5" cy="-185.4" rx="1.8" ry="1.8"/>
</g>
<!-- ArtemisParents&#45;&#45;Parents -->
<g id="edge3" class="edge">
<title>ArtemisParents&#45;&#45;Parents</title>
<path fill="none" stroke="#000000" d="M48.1129,-186.2C53.2732,-186.2 69.3544,-186.2 74.7298,-186.2"/>
</g>
<!-- Artemis -->
<g id="node7" class="node">
<title>Artemis</title>
<polygon fill="none" stroke="#000000" points="61,-147.6 0,-147.6 0,-111.6 61,-111.6 61,-147.6"/>
<text text-anchor="middle" x="30.5" y="-125.9" font-family="Times,serif" font-size="14.00" fill="#000000">Artemis</text>
</g>
<!-- Artemis&#45;&#45;ArtemisParents -->
<g id="edge6" class="edge">
<title>Artemis&#45;&#45;ArtemisParents</title>
<path fill="none" stroke="#000000" d="M46.5,-147.871C46.5,-161.0933 46.5,-177.6044 46.5,-183.3312"/>
</g>
<!-- Apollo -->
<g id="node8" class="node">
<title>Apollo</title>
<polygon fill="none" stroke="#000000" points="133.5,-147.6 79.5,-147.6 79.5,-111.6 133.5,-111.6 133.5,-147.6"/>
<text text-anchor="middle" x="106.5" y="-125.9" font-family="Times,serif" font-size="14.00" fill="#000000">Apollo</text>
</g>
<!-- Apollo&#45;&#45;ApolloParents -->
<g id="edge7" class="edge">
<title>Apollo&#45;&#45;ApolloParents</title>
<path fill="none" stroke="#000000" d="M102.5,-147.871C102.5,-161.0933 102.5,-177.6044 102.5,-183.3312"/>
</g>
<!-- ApolloKids -->
<g id="node9" class="node">
<title>ApolloKids</title>
<ellipse fill="#000000" stroke="#000000" cx="106.5" cy="-73.8" rx="1.8" ry="1.8"/>
</g>
<!-- ApolloKids&#45;&#45;Apollo -->
<g id="edge10" class="edge">
<title>ApolloKids&#45;&#45;Apollo</title>
<path fill="none" stroke="#000000" d="M106.5,-75.6566C106.5,-81.1784 106.5,-97.9474 106.5,-111.3386"/>
</g>
<!-- AeacusFather -->
<g id="node11" class="node">
<title>AeacusFather</title>
<ellipse fill="#000000" stroke="#000000" cx="133.5" cy="-73.8" rx="1.8" ry="1.8"/>
</g>
<!-- ApolloKids&#45;&#45;AeacusFather -->
<g id="edge9" class="edge">
<title>ApolloKids&#45;&#45;AeacusFather</title>
<path fill="none" stroke="#000000" d="M108.2715,-74.2C113.1521,-74.2 126.7565,-74.2 131.6865,-74.2"/>
</g>
<!-- AsclepiusFather -->
<g id="node10" class="node">
<title>AsclepiusFather</title>
<ellipse fill="#000000" stroke="#000000" cx="75.5" cy="-73.8" rx="1.8" ry="1.8"/>
</g>
<!-- AsclepiusFather&#45;&#45;ApolloKids -->
<g id="edge8" class="edge">
<title>AsclepiusFather&#45;&#45;ApolloKids</title>
<path fill="none" stroke="#000000" d="M77.534,-74.2C83.2453,-74.2 99.3619,-74.2 104.7332,-74.2"/>
</g>
<!-- Asclepius -->
<g id="node12" class="node">
<title>Asclepius</title>
<polygon fill="none" stroke="#000000" points="92.5,-36 22.5,-36 22.5,0 92.5,0 92.5,-36"/>
<text text-anchor="middle" x="57.5" y="-14.3" font-family="Times,serif" font-size="14.00" fill="#000000">Asclepius</text>
</g>
<!-- Asclepius&#45;&#45;AsclepiusFather -->
<g id="edge11" class="edge">
<title>Asclepius&#45;&#45;AsclepiusFather</title>
<path fill="none" stroke="#000000" d="M75.5,-36.271C75.5,-49.4933 75.5,-66.0044 75.5,-71.7312"/>
</g>
<!-- Aeacus -->
<g id="node13" class="node">
<title>Aeacus</title>
<polygon fill="none" stroke="#000000" points="166.5,-36 110.5,-36 110.5,0 166.5,0 166.5,-36"/>
<text text-anchor="middle" x="138.5" y="-14.3" font-family="Times,serif" font-size="14.00" fill="#000000">Aeacus</text>
</g>
<!-- Aeacus&#45;&#45;AeacusFather -->
<g id="edge12" class="edge">
<title>Aeacus&#45;&#45;AeacusFather</title>
<path fill="none" stroke="#000000" d="M133.5,-36.271C133.5,-49.4933 133.5,-66.0044 133.5,-71.7312"/>
</g>
</g>
</svg>
